<?xml version="1.0" encoding="utf-8"?>
<!-- Generator: Adobe Illustrator 16.0.0, SVG Export Plug-In . SVG Version: 6.00 Build 0)  -->
<!DOCTYPE svg PUBLIC "-//W3C//DTD SVG 1.1//EN" "http://www.w3.org/Graphics/SVG/1.1/DTD/svg11.dtd">
<svg version="1.1" id="Layer_1" xmlns="http://www.w3.org/2000/svg" xmlns:xlink="http://www.w3.org/1999/xlink" x="0px" y="0px"
	 width="1000.224px" height="279.771px" viewBox="476.503 133.282 1000.224 279.771"
	 enable-background="new 476.503 133.282 1000.224 279.771" xml:space="preserve">
<g>
	<path fill="#F68D11" d="M834.672,374.83c-33.475,24.912-82.134,38.191-124.004,38.223c-58.687,0.047-111.506-21.689-151.545-58.001
		c-3.147-2.84-0.33-6.739,3.446-4.515c43.164,25.175,96.495,40.36,151.616,40.317c37.165-0.029,78.051-7.844,115.622-23.886
		C835.484,364.542,840.245,370.737,834.672,374.83"/>
	<path fill="#F68D11" d="M848.666,358.794c-4.32-5.473-28.384-2.57-39.183-1.249c-3.306,0.391-3.807-2.491-0.849-4.556
		c19.21-13.576,50.658-9.696,54.32-5.15c3.666,4.553-0.943,36.255-18.932,51.428c-2.775,2.319-5.383,1.031-4.17-1.977
		C843.887,387.108,852.963,364.329,848.666,358.794"/>
	<path d="M810.152,257.215l-0.01-13.169c-0.002-1.991,1.514-3.353,3.309-3.354l58.74-0.046c1.877-0.002,3.38,1.393,3.381,3.348
		l0.009,11.264c0.002,1.907-1.593,4.367-4.432,8.298l-30.359,43.685c11.314-0.284,23.222,1.419,33.479,7.236
		c2.341,1.276,2.987,3.234,3.129,5.139l0.011,14.032c0.001,1.95-2.098,4.16-4.322,3.002c-18.059-9.492-42.069-10.538-62.059,0.165
		c-2.031,1.095-4.166-1.078-4.167-3.039l-0.011-13.376c-0.002-2.136,0.029-5.761,2.17-9.038l35.209-50.853l-30.686,0.024
		C811.671,260.535,810.154,259.202,810.152,257.215"/>
	<path d="M595.996,339.639l-17.881,0.014c-1.685-0.088-3.056-1.371-3.206-3.001l-0.041-92.179c-0.002-1.837,1.506-3.322,3.43-3.324
		l16.64-0.012c1.762,0.083,3.165,1.397,3.244,3.076l0.01,12.03h0.353c4.317-11.644,12.496-17.074,23.484-17.083
		c11.193-0.008,18.204,5.411,23.205,17.047c4.324-11.644,14.172-17.076,24.669-17.083c7.523-0.006,15.708,3.067,20.706,10.077
		c5.648,7.763,4.531,18.984,4.539,28.866l-0.006,58.178c0.001,1.865-1.495,3.319-3.429,3.321l-17.855,0.015
		c-1.78-0.12-3.185-1.537-3.186-3.317l-0.038-48.834c-0.003-3.906,0.307-13.589-0.521-17.283c-1.355-6.193-5.336-7.941-10.523-7.937
		c-4.332,0.004-8.857,2.93-10.674,7.573c-1.828,4.646-1.63,12.393-1.627,17.667l0.039,48.834c0.001,1.864-1.57,3.318-3.47,3.32
		l-17.844,0.016c-1.807-0.12-3.215-1.537-3.216-3.318l-0.064-48.833c-0.008-10.307,1.655-25.424-11.019-25.414
		c-12.813,0.009-12.332,14.729-12.324,25.431l0.038,48.836C599.428,338.183,597.911,339.638,595.996,339.639"/>
	<path d="M926.138,238.92c26.5-0.021,40.872,22.86,40.894,51.926c0.022,28.144-15.791,50.455-40.815,50.475
		c-25.989,0.02-40.201-22.844-40.224-51.347C885.972,261.246,900.284,238.94,926.138,238.92 M926.312,257.713
		c-13.187,0.01-13.983,18.052-13.975,29.333c0.009,11.22-0.126,35.314,13.867,35.306c13.827-0.013,14.484-19.434,14.476-31.27
		c-0.006-7.772-0.335-17.076-2.665-24.453C935.979,260.242,932.005,257.708,926.312,257.713"/>
	<path d="M1001.477,339.325l-17.806,0.014c-1.798-0.119-3.212-1.535-3.214-3.315l-0.101-92.197c0.156-1.663,1.632-2.99,3.431-2.991
		l16.565-0.013c1.559,0.083,2.847,1.123,3.189,2.559l0.012,14.104h0.322c5.006-12.628,11.982-18.631,24.347-18.64
		c7.989-0.006,15.869,2.881,20.854,10.804c4.689,7.409,4.699,19.817,4.706,28.736l0.045,58.003c-0.196,1.649-1.677,2.896-3.447,2.9
		l-17.912,0.014c-1.662-0.09-2.956-1.341-3.163-2.893l-0.04-50.054c-0.007-10.097,1.16-24.836-11.198-24.827
		c-4.344,0.003-8.346,2.932-10.329,7.377c-2.496,5.634-2.827,11.263-2.822,17.468l0.039,49.629
		C1004.906,337.867,1003.381,339.323,1001.477,339.325"/>
	<path d="M795.197,322.588c-3.283-4.521-6.744-8.198-6.75-16.643l-0.025-27.965c-0.01-11.86,0.855-22.742-7.855-30.916
		c-6.867-6.59-18.256-8.916-26.946-8.91c-16.986,0.015-35.969,6.432-39.922,27.494c-0.451,2.289,1.208,3.457,2.683,3.81
		l17.299,1.844c1.608-0.087,2.816-1.68,3.093-3.313c1.511-7.246,7.538-10.764,14.369-10.77c3.656-0.005,7.825,1.357,10.021,4.645
		c2.54,3.692,2.182,8.767,2.187,13.013v2.329c-10.36,1.184-23.889,1.962-33.588,6.269c-11.189,4.88-19.055,14.794-19.045,29.357
		c0.016,18.682,11.707,27.986,26.756,27.976c12.726-0.01,19.659-3.031,29.471-13.089c3.231,4.722,4.332,7.016,10.252,11.957
		c1.332,0.748,3.047,0.677,4.209-0.425l0.036,0.046c3.59-3.169,10.052-8.863,13.724-11.947
		C796.6,326.172,796.308,324.227,795.197,322.588z M760.032,314.564c-2.842,5.049-7.313,8.157-12.332,8.163
		c-6.882,0.005-10.887-5.229-10.892-13.044c-0.016-15.244,13.616-18.086,26.557-18.097v3.907
		C763.371,302.514,763.54,308.332,760.032,314.564z"/>
	<path d="M560.978,322.768c-3.293-4.518-6.75-8.199-6.754-16.644l-0.021-27.965c-0.01-11.86,0.804-22.742-7.912-30.915
		c-6.816-6.585-18.2-8.915-26.895-8.905c-17.001,0.01-35.964,6.426-39.938,27.494c-0.41,2.289,1.219,3.457,2.653,3.81l17.35,1.838
		c1.608-0.087,2.78-1.68,3.088-3.308c1.464-7.251,7.543-10.769,14.369-10.774c3.667,0,7.845,1.362,10.017,4.645
		c2.514,3.692,2.202,8.767,2.202,13.017l0.005,2.33c-10.375,1.178-23.904,1.962-33.604,6.264
		c-11.173,4.88-19.044,14.794-19.034,29.363c0.015,18.675,11.732,27.984,26.747,27.975c12.741-0.01,19.659-3.031,29.46-13.089
		c3.252,4.716,4.297,7.016,10.263,11.957c1.342,0.748,3.057,0.676,4.214-0.43l0.046,0.046c3.539-3.17,10.053-8.864,13.708-11.942
		C562.386,326.357,562.104,324.406,560.978,322.768z M525.833,314.749c-2.853,5.049-7.369,8.152-12.377,8.157
		c-6.856,0.005-10.866-5.224-10.876-13.043c-0.01-15.245,13.616-18.082,26.572-18.092l0.005,3.907
		C529.162,302.699,529.31,308.516,525.833,314.749z"/>
	<polyline fill="#F68D11" points="1167.535,215.794 1082.211,215.859 1082.199,200.858 1167.521,200.792 1167.535,215.794 	"/>
	<polyline fill="#F68D11" points="1167.515,193.291 1082.192,193.357 1082.182,178.355 1167.508,178.288 1167.515,193.291 	"/>
	<polyline fill="#F68D11" points="1167.501,170.787 1082.176,170.853 1082.164,155.852 1167.487,155.785 1167.501,170.787 	"/>
	<polyline fill="#F68D11" points="1167.48,148.284 1082.158,148.35 1082.146,133.347 1167.474,133.282 1167.48,148.284 	"/>
	<polyline fill="#F68D11" points="1260.25,215.721 1174.93,215.788 1174.916,200.785 1260.243,200.72 1260.25,215.721 	"/>
	<polyline fill="#F68D11" points="1260.237,193.218 1174.909,193.285 1174.902,178.282 1260.223,178.216 1260.237,193.218 	"/>
	<polyline fill="#F68D11" points="1353.082,215.65 1267.754,215.716 1267.74,200.713 1353.068,200.647 1353.082,215.65 	"/>
	<polyline fill="#F68D11" points="1353.061,193.146 1267.733,193.213 1267.727,178.21 1353.048,178.144 1353.061,193.146 	"/>
	<polyline fill="#F68D11" points="1353.048,170.643 1267.721,170.708 1267.706,155.707 1353.034,155.641 1353.048,170.643 	"/>
	<path d="M1297.694,320.136c0.204-0.396,0.819-0.803,1.223-0.806c0.396,0,1.01,0.205,1.618,0.408
		c8.924,4.403,17.861,6.807,24.758,6.802c9.743-0.008,16.223-5.832,16.216-14.454c-0.007-6.817-3.462-10.822-12.993-15.218
		c-13.602-6.212-17.868-8.412-22.744-12.425c-6.281-5.015-9.333-11.223-9.34-19.044c-0.014-16.241,12.762-27.885,30.82-27.898
		c10.549-0.008,26.172,4.999,26.172,8.409c0,0.395,0,0.395-0.396,1.398l-3.646,7.427c-0.409,0.604-1.222,1.202-1.83,1.203
		c-0.402,0-0.818-0.199-1.625-0.4c-7.715-3.605-13.594-5.2-19.07-5.195c-9.742,0.008-15.417,5.025-15.41,13.44
		c0,3.811,1.428,7.413,4.063,9.827c2.847,2.6,2.847,2.6,21.303,11.409c15.028,7.204,20.299,13.816,20.306,25.852
		c0.014,17.047-12.952,28.488-32.221,28.504c-10.146,0.009-21.713-2.994-30.021-7.805c-1.024-0.602-1.229-0.997-1.229-1.798
		c0-0.399,0-0.399,0.205-0.812L1297.694,320.136"/>
	<path d="M1374.207,244.396c-0.007-2.03,0.13-2.436,2.158-2.438h10.747c1.823-0.002,2.239,0.397,2.239,2.427v91.42
		c0,2.038-1.563,3.513-3.394,3.513l-8.568,0.007c-1.83,0.001-3.183-1.584-3.183-3.626V244.396"/>
	<path d="M1472.07,259.578c-0.614,1.014-1.017,1.42-1.618,1.423c-0.416,0-1.017-0.209-1.631-0.807
		c-9.942-7.297-13.997-9.126-20.901-9.121c-16.229,0.013-24.531,12.803-24.512,37.746c0.021,25.364,7.531,37.939,22.546,37.929
		c8.111-0.006,12.366-1.844,23.925-9.967c0.614-0.405,1.011-0.613,1.421-0.613c0.614,0,1.01,0.413,1.427,1.233l3.038,7.699
		c0.198,0.602,0.614,1.818,0.614,2.021c0,1.019-1.018,2.229-3.243,3.864c-8.302,6.085-18.448,9.54-28.396,9.549
		c-24.13,0.018-38.339-18.424-38.366-49.262c-0.021-33.268,15.574-53.769,41.131-53.79c8.72-0.006,17.254,2.625,24.751,7.902
		c3.257,2.221,4.473,3.638,4.473,5.064l-0.204,1.217L1472.07,259.578"/>
	<path d="M1192.326,270.124c-0.013-11.491-0.026-30.999-26.108-30.979c-10.179,0.008-19.045,6.937-23.476,15.517
		c-3.159-11.121-10.001-15.49-21.472-15.482c-9.403,0.006-19.479,4.928-23.732,13.5l-0.005-7.912
		c-0.002-1.769-1.4-3.184-3.207-3.283l-9.012,0.007c-1.789,0-3.266,1.31-3.416,2.977v91.657c0.001,1.776,1.509,3.182,3.312,3.298
		l9.017-0.008c1.793-0.001,3.27-1.32,3.415-2.983l-0.05-64.413c-0.012-15.325,11.295-19.703,18.505-19.708
		c10.901-0.01,12.896,8.882,13.242,16.135v68.331c0,1.746,1.803,2.638,3.62,2.745l8.722-0.007c1.786-0.003,3.186-1.356,3.334-2.738
		v-65.229c0.212-14.931,11.291-19.268,18.438-19.273c11.13-0.009,12.979,9.271,13.273,16.61l0.055,67.811
		c0,1.313,1.181,2.351,2.703,2.625l-0.021,0.107l9.498-0.008c1.796-0.001,3.271-1.091,3.414-2.481l-0.014-18.386L1192.326,270.124"
		/>
	<path d="M1212.763,324.919c1.892,5.095,9.252,15.502,24.095,15.489c13.902-0.013,21.993-4.929,26.172-13.509l0.007,7.91
		c0,1.771,1.372,3.194,3.147,3.293l8.869-0.007c1.762,0,3.141-1.315,3.292-2.979v-91.655c0-1.782-1.414-3.189-3.195-3.301
		l-8.87,0.007c-1.755,0.002-3.1,1.315-3.243,2.983v64.408c0.007,15.323-14.339,19.67-24.068,19.715
		c-10.727,0.047-12.679-8.882-13.027-16.142l-0.055-68.325c-0.321-1.476-1.728-2.641-3.502-2.738l-8.591,0.006
		c-1.747,0.002-3.182,1.098-3.331,2.479v65.484C1210.462,308.039,1210.864,319.844,1212.763,324.919"/>
	<path d="M1387.078,201.184l-10.748,0.007c-2.021,0.002-2.232,0.366-2.225,2.191v1.575l0.006,7.768v1.493
		c0,1.824,0.41,2.19,2.233,2.188l10.754-0.007c2.021-0.002,2.232-0.368,2.232-2.192l-0.007-1.579l-0.007-7.757v-1.5
		C1389.317,201.546,1388.907,201.182,1387.078,201.184"/>
</g>
</svg>
